<svg clip-rule="evenodd" fill-rule="evenodd" height="512" image-rendering="optimizeQuality" shape-rendering="geometricPrecision" text-rendering="geometricPrecision" viewBox="0 0 28222 28222" width="512" xmlns="http://www.w3.org/2000/svg"><g id="Layer_x0020_1"><circle cx="14111" cy="14111" fill="#ff700d" r="14111"/><path d="m10591 10355c-41 0-81-8-120-24l-3123-1316h-1600c-170 0-307-138-307-307v-3314c0-170 137-307 307-307h6505c170 0 307 137 307 307v3314c0 169-137 307-307 307h-1356v1033c0 103-51 199-137 256-51 34-110 51-169 51zm-488 9040 66-818h2343v818zm6326-97c85 0 154-68 154-153v-398c0-85-69-154-154-154s-153 69-153 154v398c0 85 68 153 153 153zm0-1312c85 0 154-69 154-153v-399c0-85-69-153-154-153s-153 68-153 153v399c0 84 68 153 153 153zm-6235 284 144-1793c0-12 2-24 5-36 6-33 174-817 1206-1054l2795-672c91-22 187-1 261 57l1795 1400 1795-1400c73-58 169-79 260-57l2799 673c1028 236 1196 1020 1203 1053 2 12 4 24 5 36l144 1793h-2319v-426c0-85-68-154-153-154s-154 69-154 154v579 972h-7161v-972-579c0-85-69-154-154-154s-153 69-153 154v426zm12436 307 66 818h-2409v-818zm-6198-4404c-11 0-22-1-32-1-974 18-1806-868-1841-906-3-4-6-7-9-11-42-49-82-99-120-148h-1515c-170 0-307-137-307-307v-674c-70-56-116-143-116-240v-1747c0-169 138-307 307-307h64c92 414 233 818 398 1195 18 237 75 498 135 711 43 154 96 306 156 455h-330v300h809c-385-717-454-1332-466-1538-814-1815-659-3376 429-4288 266-223 964-763 1703-962 384-103 792-158 1181-158 927 0 1685 297 2134 836 201 242 280 470 349 671 69 200 135 389 329 620 714 851 104 2185-341 3159-36 79-71 156-105 230-20 260-150 1192-994 2192-3 4-6 7-9 11-35 37-849 907-1809 907zm-2249-3194c23 231 123 846 563 1514h1526c169 0 307 138 307 307 0 170-138 307-307 307h-973c258 203 658 452 1068 452 8 0 17 0 25-1h15c9 1 17 1 26 1 661 0 1296-647 1353-706 748-890 837-1707 847-1848-240-1591-841-2449-1288-2449-108 0-220 52-331 155-427 396-834 588-1243 588-275 0-494-88-655-152-46-19-106-43-145-54-23 37-69 127-124 335-126 470-340 1105-664 1551zm5817 1214h-736c54-129 102-261 143-395 60-195 119-439 140-659 27-60 54-119 81-178 152-333 327-716 464-1115 125 39 215 156 215 293v1747c0 170-137 307-307 307zm-5761 2232 199-845c158 150 351 297 520 409 426 283 923 490 1442 490h32c513 0 1004-208 1423-492 170-115 352-257 506-407l199 845-33-8c-181-44-374-2-521 113l-1606 1253-1606-1253c-147-115-340-157-521-113zm7382 8710h-15020c-169 0-307-137-307-307v-693h15634v693c0 170-138 307-307 307zm1214-1307h-17448c-170 0-307-137-307-307v-1513c0-169 137-307 307-307h17448c170 0 307 138 307 307v1513c0 170-137 307-307 307zm-11931-14624c85 0 154-68 154-153s-69-154-154-154h-457c-85 0-154 69-154 154s69 153 154 153zm-1675 0c85 0 154-68 154-153s-69-154-154-154h-457c-85 0-154 69-154 154s69 153 154 153zm-1675 0c85 0 154-68 154-153s-69-154-154-154h-457c-85 0-154 69-154 154s69 153 154 153z" fill="#fff"/></g></svg>