<svg id="Capa_1" enable-background="new 0 0 512.026 512.026" height="512" viewBox="0 0 512.026 512.026" width="512" xmlns="http://www.w3.org/2000/svg"><g><path d="m256.011.013c-46.322 1.291-73.927 37.601-74.121 75.634-.176 36.709 52.383 102.173 62.93 114.917l11.191 13.857 11.836-13.74c10.664-12.642 63.867-77.593 64.043-114.302.212-41.468-34.452-76.154-75.879-76.366zm15 91h-15-15v-30h15 15z" fill="#ff884d"/><path d="m331.889 76.379c.212-41.468-34.451-76.154-75.879-76.366v61h15v30h-15v113.408l11.836-13.74c10.665-12.642 63.868-77.593 64.043-114.302z" fill="#ff4d4d"/><path d="m143.613 132.937c-17.984-37.365-63.834-53.055-101.107-35.054-37.376 17.975-53.018 62.785-35.069 100.107 15.923 33.076 92.86 68.892 107.919 75.732l16.362 7.441 4.395-17.432c4.043-16.039 23.423-97.718 7.5-130.794zm-75.604 52.544-13.008-27.026 27.041-13.008 13.008 27.026z" fill="#ff884d"/><path d="m469.53 97.898c-37.088-17.943-83.064-2.476-101.122 35.039-15.923 33.076 3.457 114.756 7.5 130.796l4.395 17.432 16.362-7.441c15.059-6.841 91.996-42.656 107.919-75.732 18.012-37.452 2.171-82.207-35.054-100.094zm-25.517 87.583-27.041-13.008 13.008-27.026 27.041 13.008z" fill="#ff4d4d"/><g><path d="m256.011 181.013c-90.981 0-165 74.019-165 165s74.019 166 165 166 165-75.019 165-166-74.019-165-165-165z" fill="#6cf"/><path d="m421.011 346.013c0-90.981-74.019-165-165-165v331c90.981 0 165-75.019 165-166z" fill="#4da6ff"/><path d="m256.011 211.013c-74.559 0-135 60.441-135 135s60.441 136 135 136 135-61.441 135-136-60.442-135-135-135z" fill="#4da6ff"/><path d="m391.011 346.013c0-74.559-60.441-135-135-135v271c74.558 0 135-61.441 135-136z" fill="#37f"/><g fill="#6cf"><path d="m118.535 391.013v30h137.476 137.475v-30h-137.475z"/><path d="m256.011 271.013h-137.476v30h137.476 137.475v-30z"/></g><path d="m256.011 271.013h137.476v30h-137.476z" fill="#4da6ff"/><path d="m256.011 391.013h137.476v30h-137.476z" fill="#4da6ff"/><path d="m256.011 181.013c-41.353 0-75 74.019-75 165s33.647 166 75 166 75-75.019 75-166-33.648-165-75-165zm0 301c-13.74 0-45-52.006-45-136s31.26-135 45-135 45 51.006 45 135-31.26 136-45 136z" fill="#6cf"/><path d="m331.011 346.013c0-90.981-33.647-165-75-165v30c13.74 0 45 51.006 45 135s-31.26 136-45 136v30c41.352 0 75-75.019 75-166z" fill="#4da6ff"/></g></g></svg>