<?xml version="1.0" encoding="UTF-8" standalone="no"?>
<!-- Created with Inkscape (http://www.inkscape.org/) -->

<svg
   version="1.1"
   id="svg2271"
   xml:space="preserve"
   width="682.66669"
   height="682.66669"
   viewBox="0 0 682.66669 682.66669"
   xmlns="http://www.w3.org/2000/svg"
   xmlns:svg="http://www.w3.org/2000/svg"><defs
     id="defs2275"><clipPath
       clipPathUnits="userSpaceOnUse"
       id="clipPath2285"><path
         d="M 0,512 H 512 V 0 H 0 Z"
         id="path2283" /></clipPath></defs><g
     id="g2277"
     transform="matrix(1.3333333,0,0,-1.3333333,0,682.66667)"><g
       id="g2279"><g
         id="g2281"
         clip-path="url(#clipPath2285)"><g
           id="g2287"
           transform="translate(502,256)"><path
             d="m 0,0 c 0,-135.862 -110.138,-246 -246,-246 -135.862,0 -246,110.138 -246,246 0,135.862 110.138,246 246,246 C -110.138,246 0,135.862 0,0 Z"
             style="fill:none;stroke:#020288;stroke-width:20;stroke-linecap:round;stroke-linejoin:round;stroke-miterlimit:10;stroke-dasharray:none;stroke-opacity:1"
             id="path2289" /></g><g
           id="g2291"
           transform="translate(256,54)"><path
             d="M 0,0 C -111.383,0 -202,90.617 -202,202"
             style="fill:none;stroke:#020288;stroke-width:20;stroke-linecap:round;stroke-linejoin:round;stroke-miterlimit:10;stroke-dasharray:none;stroke-opacity:1"
             id="path2293" /></g><g
           id="g2295"
           transform="translate(256,458)"><path
             d="M 0,0 C 111.383,0 202,-90.617 202,-202"
             style="fill:none;stroke:#020288;stroke-width:20;stroke-linecap:round;stroke-linejoin:round;stroke-miterlimit:10;stroke-dasharray:none;stroke-opacity:1"
             id="path2297" /></g><g
           id="g2299"
           transform="translate(402.5742,256)"><path
             d="m 0,0 c 0,-80.951 -65.623,-146.574 -146.574,-146.574 -80.951,0 -146.575,65.623 -146.575,146.574 0,80.951 65.624,146.574 146.575,146.574 C -65.623,146.574 0,80.951 0,0"
             style="fill:#ffbdbc;fill-opacity:1;fill-rule:nonzero;stroke:none"
             id="path2301" /></g><g
           id="g2303"
           transform="translate(333.043,320.8018)"><path
             d="M 0,0 V -32.936"
             style="fill:none;stroke:#020288;stroke-width:20;stroke-linecap:round;stroke-linejoin:round;stroke-miterlimit:10;stroke-dasharray:none;stroke-opacity:1"
             id="path2305" /></g><g
           id="g2307"
           transform="translate(349.5107,304.334)"><path
             d="M 0,0 H -32.937"
             style="fill:none;stroke:#020288;stroke-width:20;stroke-linecap:round;stroke-linejoin:round;stroke-miterlimit:10;stroke-dasharray:none;stroke-opacity:1"
             id="path2309" /></g><g
           id="g2311"
           transform="translate(213.7944,295.1934)"><path
             d="M 0,0 H 17.002 V -79.545"
             style="fill:none;stroke:#020288;stroke-width:20;stroke-linecap:round;stroke-linejoin:round;stroke-miterlimit:10;stroke-dasharray:none;stroke-opacity:1"
             id="path2313" /></g><g
           id="g2315"
           transform="translate(298.2051,239.8086)"><path
             d="m 0,0 c 0,-12.704 -10.298,-23.002 -23.002,-23.002 -12.704,0 -23.003,10.298 -23.003,23.002 0,12.704 10.299,23.003 23.003,23.003 C -10.298,23.003 0,12.704 0,0 Z"
             style="fill:none;stroke:#020288;stroke-width:20;stroke-linecap:round;stroke-linejoin:round;stroke-miterlimit:10;stroke-dasharray:none;stroke-opacity:1"
             id="path2317" /></g><g
           id="g2319"
           transform="translate(291.9727,279.582)"><path
             d="m 0,0 c 0,-9.262 -7.508,-16.771 -16.77,-16.771 -9.262,0 -16.77,7.509 -16.77,16.771 0,9.262 7.508,16.77 16.77,16.77 C -7.508,16.77 0,9.262 0,0 Z"
             style="fill:none;stroke:#020288;stroke-width:20;stroke-linecap:round;stroke-linejoin:round;stroke-miterlimit:10;stroke-dasharray:none;stroke-opacity:1"
             id="path2321" /></g></g></g></g></svg>
