<svg id="Capa_1" enable-background="new 0 0 512 512" height="512" viewBox="0 0 512 512" width="512" xmlns="http://www.w3.org/2000/svg"><g><g><g><g><g><g><circle cx="256" cy="256" fill="#ffbeaa" r="256"/></g></g></g></g></g><path d="m373.86 110.737-45.521-45.521-203.307 360.195 81.889 81.889c15.885 3.084 32.293 4.7 49.079 4.7 141.385 0 256-114.615 256-256 0-16.786-1.616-33.195-4.7-49.08l-120.332-120.332z" fill="#faa68e"/><g><path d="m125.032 86.589h261.936v338.823h-261.936z" fill="#636978"/></g><g><path d="m255.644 86.588h131.324v338.823h-131.324z" fill="#414952"/></g><g><path d="m151.103 118.706h209.795v279.8h-209.795z" fill="#2fddd0"/></g><g><path d="m255.644 118.707h105.253v279.8h-105.253z" fill="#11bfae"/></g><g><path d="m328.339 141.743h-144.678v-76.527h144.678zm-114.678-30h84.678v-16.527h-84.678z" fill="#fff"/></g><g><path d="m328.339 65.216h-72.695v30h42.695v16.527h-42.695v30h72.695z" fill="#e9edf5"/></g><g><path d="m173.726 170.833h38.226v38.226h-38.226z" fill="#e9edf5"/></g><g><path d="m228.024 187.34h106.859v21.719h-106.859z" fill="#e9edf5"/></g><g><path d="m255.644 187.34h79.24v21.719h-79.24z" fill="#cdd2e1"/></g><g><path d="m173.726 236.887h38.226v38.226h-38.226z" fill="#e9edf5"/></g><g><path d="m228.024 253.394h106.859v21.719h-106.859z" fill="#e9edf5"/></g><g><path d="m255.644 253.394h79.24v21.72h-79.24z" fill="#cdd2e1"/></g><g><path d="m173.726 302.941h38.226v38.226h-38.226z" fill="#e9edf5"/></g><g><path d="m228.024 319.448h106.859v21.719h-106.859z" fill="#e9edf5"/></g><g><path d="m255.644 319.447h79.24v21.72h-79.24z" fill="#cdd2e1"/></g><g><g><path d="m373.326 244.566h28.244v75.872h-28.244z" fill="#e9edf5" transform="matrix(.707 .707 -.707 .707 313.232 -191.223)"/></g><g><path d="m268.88 354.279h17.684v75.872h-17.684z" fill="#fff" transform="matrix(.707 .707 -.707 .707 358.672 -81.504)"/></g><g><path d="m359.754 349.185-38.559-38.558 4.39-4.39 11.041-2.692 1.706-10.054 18.209-18.207 38.559 38.559z" fill="#fff"/></g><g><path d="m383.109 252.542h54.531v14.072h-54.531z" fill="#fff" transform="matrix(.707 .707 -.707 .707 303.738 -214.148)"/></g><g><path d="m271.424 373.766h32.382v17.114h-32.382z" fill="#e9edf5" transform="matrix(.707 .707 -.707 .707 354.577 -91.396)"/></g><g><path d="m313.164 395.77-38.56-38.558 29.663-29.66 8.229-5.088 4.519-7.658 4.285-4.285 38.56 38.558z" fill="#ffce00"/></g><g><path d="m328.524 299.143h23.455v18.027h-23.455z" fill="#7e8596" transform="matrix(.707 .707 -.707 .707 317.55 -150.337)"/></g><g><path d="m307.207 320.457h23.455v18.026h-23.455z" fill="#7e8596" transform="matrix(.707 .707 -.707 .707 326.376 -129.022)"/></g><g><path d="m331.63 287.349h84.429v17.51h-84.429z" fill="#dce1eb" transform="matrix(.707 .707 -.707 .707 318.866 -177.62)"/></g></g><g><path d="m204.814 296.327-37.27-37.27 21.213-21.213 16.057 16.056 42.832-42.833 21.213 21.213z" fill="#4a7aff"/></g><g><path d="m255.644 219.064v26.432l13.215-13.216z" fill="#0053bf"/></g></g></svg>