<svg id="Слой_1" enable-background="new 0 0 512 512" height="512" viewBox="0 0 512 512" width="512" xmlns="http://www.w3.org/2000/svg"><g><g><path d="m508.1 256c0 139.2-112.9 252-252.1 252-136.9 0-252.1-114.5-252.1-252 0-121.3 92.7-229.8 212.5-249 136.7-21.9 269.7 75.7 289.2 213.3 1.6 11.8 2.5 23.8 2.5 35.7z" fill="#fff"/><circle cx="256" cy="256" fill="#abf5ff" r="216.7"/><path d="m413.9 157.2c-15-18.3-37.2-22.9-54.5-13.7s-29.5 16.3-49.5 11.2c-18.5-4.7-22.6-19-52.4-21.1v-.2c-.5 0-1 0-1.5.1-.5 0-1 0-1.5-.1v.2c-29.8 2.1-33.9 16.4-52.4 21.1-20 5.1-32.2-2-49.5-11.2s-39.5-4.6-54.5 13.7-20.9 37.1-8.6 66.1 26.3 28 26.3 28 22.7-13.2 28.2-21.4c1-1.5-38.6-17.3-34.5-39.2s29.5-28 54-15.8c24.3 12.1 43.2.2 43.6 0-.1.3-4.7 11-7.5 27.8-.5 2.8-.9 5.8-1.3 9-2.7 24.2-.9 57.4 18.8 90.3 0 0-16.8 12.7-18.6 49.3s15.4 53.9 22.7 72.2c0 0 4.6 1.9 12.9 3.1 5.7.9 13.1 1.5 21.9 1 8.8.4 16.2-.1 21.9-1 8.3-1.3 12.9-3.1 12.9-3.1 7.3-18.3 24.5-35.6 22.7-72.2s-18.6-49.3-18.6-49.3c19.7-32.9 21.5-66.1 18.8-90.3-.4-3.2-.8-6.2-1.3-9-2.9-16.8-7.4-27.5-7.5-27.8.4.2 19.3 12.1 43.6 0 24.5-12.2 50-6.1 54 15.8s-35.5 37.7-34.5 39.2c5.5 8.1 28.2 21.4 28.2 21.4s14.1 1 26.3-28 6.4-47.8-8.6-66.1z" fill="#ffe3b8"/><path d="m153.5 226.4c-7.7-.7-27.7-.5-38.2 13.2-10.4 13.7.1 25.7 15 28 10 1.5 28.2 1 38.2-12.2 7.4-9.8 7.7-27-15-29z" fill="#ffc663"/><path d="m256 162.6c-23.1 0-29.9 7.8-21.7 20.5s6.8 25.4 2.7 45.3c-4.1 19.8 1.1 38.1 7.5 45.8s2.3 35.1 1.4 51.9c-.3 5.7-15.4 6.5-18.9 27.3-4.6 27.6 6 67.2 15.1 73.5 0 0 5.7 1 13.8 1 7.4 0 13.1-1 13.1-1 9.1-6.3 20.9-46.9 16.7-74.6-3.1-20.9-19.5-20.4-19.8-26.2-.9-16.8-5-44.2 1.4-51.9s11.6-25.9 7.5-45.8-5.5-32.5 2.7-45.3c8.3-12.7 1.6-20.5-21.5-20.5z" fill="#ff758b"/><path d="m358.5 226.4c7.7-.7 27.7-.5 38.2 13.2 10.4 13.7-.1 25.7-15 28-10 1.5-28.2 1-38.2-12.2-7.4-9.8-7.7-27 15-29z" fill="#ffc663"/><g fill="#7790fa"><circle cx="199.1" cy="92.7" r="14.5"/><circle cx="96" cy="308.2" r="14.5"/><circle cx="144.5" cy="398.3" r="14.5"/><circle cx="154.4" cy="349.6" r="14.5"/><circle cx="416.9" cy="308.2" r="14.5"/><circle cx="371.4" cy="398.3" r="14.5"/><circle cx="358.4" cy="349.6" r="14.5"/><circle cx="312.9" cy="92.7" r="14.5"/><circle cx="256.3" cy="73.7" r="14.5"/></g></g><g><g><path d="m65.4 353.5h-4.9c-2.2 0-3.9-1.8-3.9-3.9s1.8-3.9 3.9-3.9h4.9c2.2 0 3.9 1.8 3.9 3.9s-1.7 3.9-3.9 3.9z"/><path d="m117.5 353.5h-8.7c-2.2 0-3.9-1.8-3.9-3.9s1.8-3.9 3.9-3.9h8.7c2.2 0 3.9 1.8 3.9 3.9s-1.7 3.9-3.9 3.9zm-26.1 0h-8.7c-2.2 0-3.9-1.8-3.9-3.9s1.8-3.9 3.9-3.9h8.7c2.2 0 3.9 1.8 3.9 3.9s-1.7 3.9-3.9 3.9z"/><path d="m139.8 353.5h-4.9c-2.2 0-3.9-1.8-3.9-3.9s1.8-3.9 3.9-3.9h4.9c2.2 0 3.9 1.8 3.9 3.9s-1.8 3.9-3.9 3.9z"/></g><path d="m256 63.2c-2.2 0-3.9-1.8-3.9-3.9v-20c0-2.2 1.8-3.9 3.9-3.9s3.9 1.8 3.9 3.9v20c0 2.1-1.7 3.9-3.9 3.9z"/><path d="m312.9 82.1c-2.2 0-3.9-1.8-3.9-3.9v-31.4c0-2.2 1.8-3.9 3.9-3.9 2.2 0 3.9 1.8 3.9 3.9v31.4c0 2.2-1.8 3.9-3.9 3.9z"/><path d="m199.1 82.1c-2.2 0-3.9-1.8-3.9-3.9v-31.4c0-2.2 1.8-3.9 3.9-3.9s3.9 1.8 3.9 3.9v31.4c.1 2.2-1.7 3.9-3.9 3.9z"/><g><path d="m451.5 353.5h-4.9c-2.2 0-3.9-1.8-3.9-3.9s1.8-3.9 3.9-3.9h4.9c2.2 0 3.9 1.8 3.9 3.9s-1.7 3.9-3.9 3.9z"/><path d="m429.5 353.5h-8.6c-2.2 0-3.9-1.8-3.9-3.9s1.8-3.9 3.9-3.9h8.6c2.2 0 3.9 1.8 3.9 3.9s-1.8 3.9-3.9 3.9zm-25.7 0h-8.6c-2.2 0-3.9-1.8-3.9-3.9s1.8-3.9 3.9-3.9h8.6c2.2 0 3.9 1.8 3.9 3.9s-1.8 3.9-3.9 3.9z"/><path d="m378 353.5h-4.9c-2.2 0-3.9-1.8-3.9-3.9s1.8-3.9 3.9-3.9h4.9c2.2 0 3.9 1.8 3.9 3.9s-1.7 3.9-3.9 3.9z"/></g><path d="m312.9 150.5c-2.2 0-3.9-1.8-3.9-3.9v-9.8c0-2.2 1.8-3.9 3.9-3.9 2.2 0 3.9 1.8 3.9 3.9v9.8c0 2.2-1.8 3.9-3.9 3.9zm0-29.5c-2.2 0-3.9-1.8-3.9-3.9v-9.8c0-2.2 1.8-3.9 3.9-3.9 2.2 0 3.9 1.8 3.9 3.9v9.8c0 2.1-1.8 3.9-3.9 3.9z"/><path d="m256.3 131.6c-2.2 0-3.9-1.8-3.9-3.9v-9.8c0-2.2 1.8-3.9 3.9-3.9 2.2 0 3.9 1.8 3.9 3.9v9.8c0 2.1-1.7 3.9-3.9 3.9zm0-29.6c-2.2 0-3.9-1.8-3.9-3.9v-9.8c0-2.2 1.8-3.9 3.9-3.9 2.2 0 3.9 1.8 3.9 3.9v9.8c0 2.2-1.7 3.9-3.9 3.9z"/><path d="m199.1 150.5c-2.2 0-3.9-1.8-3.9-3.9v-9.8c0-2.2 1.8-3.9 3.9-3.9s3.9 1.8 3.9 3.9v9.8c.1 2.2-1.7 3.9-3.9 3.9zm0-29.5c-2.2 0-3.9-1.8-3.9-3.9v-9.8c0-2.2 1.8-3.9 3.9-3.9s3.9 1.8 3.9 3.9v9.8c.1 2.1-1.7 3.9-3.9 3.9z"/><path d="m81.5 312.1h-35.9c-2.2 0-3.9-1.8-3.9-3.9 0-2.2 1.8-3.9 3.9-3.9h35.9c2.2 0 3.9 1.8 3.9 3.9 0 2.2-1.7 3.9-3.9 3.9z"/><path d="m130 402.2h-37.5c-2.2 0-3.9-1.8-3.9-3.9 0-2.2 1.8-3.9 3.9-3.9h37.5c2.2 0 3.9 1.8 3.9 3.9s-1.8 3.9-3.9 3.9z"/><path d="m419.5 402.2h-33.7c-2.2 0-3.9-1.8-3.9-3.9 0-2.2 1.8-3.9 3.9-3.9h33.7c2.2 0 3.9 1.8 3.9 3.9.1 2.1-1.7 3.9-3.9 3.9z"/><path d="m466.4 312.1h-35c-2.2 0-3.9-1.8-3.9-3.9 0-2.2 1.8-3.9 3.9-3.9h35c2.2 0 3.9 1.8 3.9 3.9 0 2.2-1.7 3.9-3.9 3.9z"/><path d="m400.9 254.2c-1.6 0-3-.9-3.7-2.5-.8-2 .2-4.3 2.2-5.1 4.1-1.6 12-7 19.5-24.8 10.4-24.5 8-42.5-8-62.1-13.3-16.3-33.3-21.4-49.6-12.7l-1.9 1c-16.6 8.8-29.7 15.8-50.4 10.5-8-2-13.5-5.7-18.9-9.3-7.8-5.2-15.8-10.5-32.8-11.7-.2 0-.5-.1-.7-.1-.1 0-.2 0-.3 0s-.3 0-.4 0-.2 0-.3 0c-.2.1-.4.1-.7.1-17 1.2-25 6.5-32.8 11.7-5.4 3.6-10.9 7.3-18.9 9.3-20.7 5.3-33.8-1.7-50.4-10.5l-1.9-1c-16.3-8.7-36.3-3.5-49.6 12.7-16.1 19.6-18.4 37.6-8 62.1 7.4 17.5 15.2 23 19.2 24.7 2 .9 2.9 3.2 2.1 5.2-.9 2-3.2 2.9-5.2 2.1-6.2-2.7-15.3-9.9-23.3-28.8-11.5-27.2-8.8-48.2 9.2-70.1 15.5-19 40-25 59.4-14.7l1.9 1c16.3 8.7 27 14.4 44.8 9.8 6.7-1.7 11.2-4.7 16.5-8.2 8.1-5.4 17.2-11.4 35.5-12.9.5-.2 1-.3 1.6-.3.4 0 .9 0 1.3.1.4 0 .9 0 1.3-.1.5 0 1.1.1 1.6.3 18.3 1.5 27.4 7.6 35.5 12.9 5.3 3.5 9.8 6.5 16.5 8.2 17.8 4.5 28.5-1.2 44.8-9.8l1.9-1c19.4-10.3 43.9-4.3 59.4 14.7 18 21.9 20.7 42.9 9.2 70.1-8.2 19.4-17.5 26.5-23.9 29.1-.7 0-1.2.1-1.7.1z"/><path d="m290.8 427.6c-.5 0-1-.1-1.5-.3-2-.8-3-3.1-2.2-5.1 2-5 4.7-9.9 7.5-15 7.6-13.9 16.3-29.7 15-55.6-1.7-34-16.9-46.3-17.1-46.4-1.6-1.2-2-3.4-1-5.1 19.6-32.8 20.8-65.9 18.3-87.9-.3-2.9-.7-5.8-1.2-8.8-2.7-16.1-7.1-26.5-7.3-26.9-.7-1.6-.2-3.4 1.1-4.5s3.2-1.3 4.6-.4c.7.4 17.8 10.8 39.8-.2 15.5-7.7 31.8-8.7 43.7-2.8 8.5 4.2 14.2 11.8 15.9 21.4 3.7 19.7-21.2 34.1-31.8 40.2-1.9 1.1-4.3.4-5.4-1.4-1.1-1.9-.4-4.3 1.4-5.4 9.2-5.3 30.7-17.7 28-31.9-1.3-7.2-5.4-12.6-11.7-15.8-9.7-4.8-23.5-3.8-36.7 2.8-16 8-30.1 6.2-38.7 3.6 1.5 4.9 3.3 11.8 4.7 20.1.5 3.1 1 6.2 1.3 9.2 2.5 22.6 1.4 56.3-17.7 90 5.1 5.4 16.1 20.2 17.6 49.9 1.4 28.1-8.2 45.7-15.9 59.7-2.7 4.9-5.2 9.5-7 14.1-.6 1.6-2.1 2.5-3.7 2.5z"/><path d="m221.2 427.6c-1.6 0-3-.9-3.7-2.5-1.8-4.6-4.4-9.2-7.1-14.1-7.7-14.1-17.3-31.6-15.9-59.7 1.5-29.6 12.4-44.5 17.6-49.9-19.2-33.8-20.3-67.5-17.7-90.1.3-3 .8-6.1 1.3-9.2 1.4-8.3 3.2-15.1 4.7-20.1-8.6 2.6-22.6 4.4-38.7-3.6-13.3-6.6-27-7.6-36.7-2.8-6.3 3.1-10.4 8.6-11.7 15.8-2.7 14.2 18.8 26.6 28 31.9 1.9 1.1 2.5 3.5 1.4 5.4s-3.5 2.5-5.4 1.4c-10.6-6.1-35.5-20.5-31.8-40.2 1.8-9.5 7.4-17.1 15.9-21.4 11.9-5.9 28.3-4.9 43.7 2.8 22 10.9 39 .6 39.8.2 1.5-.9 3.3-.8 4.6.4 1.3 1.1 1.7 2.9 1.1 4.5-.2.4-4.6 10.8-7.3 26.9-.5 2.9-.9 5.9-1.2 8.8-2.5 22-1.3 55.1 18.3 87.9 1 1.7.6 3.9-1 5.2-.1.1-15.4 12.4-17.1 46.4-1.3 25.9 7.4 41.7 15 55.6 2.8 5.1 5.5 10 7.5 15 .8 2-.2 4.3-2.2 5.1-.5.2-1 .3-1.4.3z"/><path d="m242.2 430.8c-.8 0-1.6-.2-2.2-.7-11-7.6-21.6-48.9-16.8-77.4 2.5-15 10.8-20.9 15.7-24.5 1.1-.8 2.7-1.9 3.1-2.5.2-3.5.5-7.4.9-11.5 1.1-13 2.7-32.7-1.3-37.5-7.3-8.8-12.6-28.5-8.3-49.1 4.2-20.4 4.9-31.3-2.2-42.3-4.3-6.6-5.1-12.4-2.5-17.1 3.5-6.4 12.5-9.5 27.5-9.5s24 3.1 27.5 9.5c2.6 4.7 1.7 10.5-2.5 17.1-7.1 11-6.4 21.9-2.2 42.3 4.2 20.6-1 40.3-8.3 49.1-4 4.8-2.4 24.5-1.3 37.5.3 4.1.7 7.9.8 11.3.5.5 2 1.4 3.1 2.1 5.4 3.2 14.3 8.6 16.6 24 4.2 28.2-7.4 70.7-18.4 78.4-1.8 1.2-4.2.8-5.5-1-1.2-1.8-.8-4.2 1-5.5 7.3-5.1 19.2-43.5 15.1-70.7-1.8-11.7-7.9-15.5-12.9-18.5-3.3-2-6.7-4-6.9-8.1-.2-3.4-.5-7.3-.8-11.4-1.7-21-2.5-36.4 3.1-43.2 6-7.2 10.4-24.5 6.7-42.5-3.9-19.1-6-33.8 3.3-48.2 1.8-2.8 3.6-6.6 2.2-9.1-.9-1.6-4.7-5.4-20.6-5.4s-19.7 3.8-20.6 5.4c-1.4 2.5.5 6.3 2.2 9.1 9.3 14.4 7.2 29.1 3.3 48.2-3.7 17.9.7 35.3 6.7 42.5 5.6 6.8 4.8 22.2 3.1 43.2-.3 4.1-.7 8-.8 11.4-.2 3.9-3.3 6.2-6.3 8.3-4.7 3.4-10.6 7.6-12.6 19.4-4.5 26.9 6.4 64.7 13.5 69.6 1.8 1.2 2.2 3.7 1 5.5-.9 1.2-2.2 1.8-3.4 1.8z"/><path d="m256 512c-34 0-67.2-6.9-98.7-20.4-30.4-13-57.8-31.6-81.5-55.3s-42.3-51-55.4-81.4c-13.5-31.5-20.4-64.8-20.4-98.9 0-59.6 22.1-118.3 62.3-165.3 40.1-47 94.6-78.1 153.5-87.5 34-5.4 68.2-3.8 101.8 4.8 32.4 8.3 62.6 22.8 89.9 42.9 27.2 20.1 49.9 44.7 67.4 73.1 18.2 29.5 29.8 61.8 34.7 95.8 1.7 11.9 2.5 24.1 2.5 36.2 0 68.4-26.6 132.7-75 181-48.4 48.4-112.7 75-181.1 75zm-.6-504.1c-12.8 0-25.6 1-38.4 3.1-117.3 18.7-209.1 126.4-209.1 245 0 134.5 113.6 248.1 248.1 248.1 136.8 0 248.1-111.3 248.1-248.1 0-11.8-.8-23.6-2.5-35.1-9.3-65.3-44.4-123.5-98.9-163.7-43.8-32.4-95-49.3-147.3-49.3z"/><path d="m138.4 272.1c-3 0-5.9-.2-8.6-.7-10.1-1.5-18.3-7.1-21.3-14.5-2.5-6.3-1.2-13.3 3.7-19.8 12.2-16.1 35-15.4 41.6-14.8 13.7 1.2 19.3 7.5 21.5 12.5 3 6.8 1.6 15.8-3.7 22.8-8 10.8-21.3 14.5-33.2 14.5zm10.1-42c-7.8 0-22.2 1.5-30.1 11.9-3.3 4.3-4.2 8.4-2.7 12 1.9 4.7 7.9 8.5 15.2 9.6 3.9.6 24.1 2.9 34.4-10.7 2.9-3.9 5-10 2.8-14.9-2-4.4-7.1-7.1-15-7.8-.8 0-2.5-.1-4.6-.1z"/><path d="m373.6 272.1c-12 0-25.2-3.7-33.3-14.4-5.3-7-6.8-16-3.7-22.8 2.2-5 7.8-11.3 21.5-12.5 6.7-.6 29.4-1.3 41.6 14.8 4.9 6.5 6.3 13.5 3.7 19.8-3 7.4-11.1 12.9-21.3 14.5-2.6.4-5.5.6-8.5.6zm-14.7-41.8c-7.9.7-13 3.4-15 7.8-2.2 4.9-.1 11 2.8 14.9 10.3 13.6 30.5 11.3 34.4 10.7 7.3-1.1 13.2-4.9 15.2-9.6 1.5-3.7.6-7.7-2.7-12-10.1-13.3-30.7-12.2-34.7-11.8z"/><path d="m199.1 111.1c-10.2 0-18.4-8.3-18.4-18.4s8.3-18.4 18.4-18.4 18.4 8.3 18.4 18.4-8.2 18.4-18.4 18.4zm0-29c-5.8 0-10.6 4.7-10.6 10.6 0 5.8 4.7 10.6 10.6 10.6s10.6-4.7 10.6-10.6c0-5.8-4.7-10.6-10.6-10.6z"/><path d="m96 326.6c-10.2 0-18.4-8.3-18.4-18.4 0-10.2 8.3-18.4 18.4-18.4s18.4 8.3 18.4 18.4-8.2 18.4-18.4 18.4zm0-29c-5.8 0-10.6 4.7-10.6 10.6 0 5.8 4.7 10.6 10.6 10.6 5.8 0 10.6-4.7 10.6-10.6 0-5.8-4.8-10.6-10.6-10.6z"/><path d="m144.5 416.7c-10.2 0-18.4-8.3-18.4-18.4s8.3-18.4 18.4-18.4c10.2 0 18.4 8.3 18.4 18.4s-8.3 18.4-18.4 18.4zm0-29c-5.8 0-10.6 4.7-10.6 10.6 0 5.8 4.7 10.6 10.6 10.6 5.8 0 10.6-4.7 10.6-10.6-.1-5.9-4.8-10.6-10.6-10.6z"/><path d="m154.4 368c-10.2 0-18.4-8.3-18.4-18.4 0-10.2 8.3-18.4 18.4-18.4s18.4 8.3 18.4 18.4c.1 10.2-8.2 18.4-18.4 18.4zm0-29c-5.8 0-10.6 4.7-10.6 10.6 0 5.8 4.7 10.6 10.6 10.6s10.6-4.7 10.6-10.6c0-5.8-4.7-10.6-10.6-10.6z"/><path d="m416.9 326.6c-10.2 0-18.4-8.3-18.4-18.4 0-10.2 8.3-18.4 18.4-18.4s18.4 8.3 18.4 18.4-8.2 18.4-18.4 18.4zm0-29c-5.8 0-10.6 4.7-10.6 10.6 0 5.8 4.7 10.6 10.6 10.6s10.6-4.7 10.6-10.6c0-5.8-4.8-10.6-10.6-10.6z"/><path d="m371.4 416.7c-10.2 0-18.4-8.3-18.4-18.4s8.3-18.4 18.4-18.4 18.4 8.3 18.4 18.4-8.3 18.4-18.4 18.4zm0-29c-5.8 0-10.6 4.7-10.6 10.6 0 5.8 4.7 10.6 10.6 10.6 5.8 0 10.6-4.7 10.6-10.6-.1-5.9-4.8-10.6-10.6-10.6z"/><path d="m358.4 368c-10.2 0-18.4-8.3-18.4-18.4 0-10.2 8.3-18.4 18.4-18.4 10.2 0 18.4 8.3 18.4 18.4.1 10.2-8.2 18.4-18.4 18.4zm0-29c-5.8 0-10.6 4.7-10.6 10.6 0 5.8 4.7 10.6 10.6 10.6 5.8 0 10.6-4.7 10.6-10.6 0-5.8-4.7-10.6-10.6-10.6z"/><path d="m312.9 111.1c-10.2 0-18.4-8.3-18.4-18.4s8.3-18.4 18.4-18.4 18.4 8.3 18.4 18.4-8.3 18.4-18.4 18.4zm0-29c-5.8 0-10.6 4.7-10.6 10.6 0 5.8 4.7 10.6 10.6 10.6 5.8 0 10.6-4.7 10.6-10.6-.1-5.8-4.8-10.6-10.6-10.6z"/><path d="m256.3 92.2c-10.2 0-18.4-8.3-18.4-18.4s8.3-18.4 18.4-18.4c10.2 0 18.4 8.3 18.4 18.4s-8.2 18.4-18.4 18.4zm0-29c-5.8 0-10.6 4.7-10.6 10.6 0 5.8 4.7 10.6 10.6 10.6 5.8 0 10.6-4.7 10.6-10.6s-4.8-10.6-10.6-10.6z"/></g></g></svg>