<svg id="Layer_1" enable-background="new 0 0 512 512" height="512" viewBox="0 0 512 512" width="512" xmlns="http://www.w3.org/2000/svg"><g id="XMLID_1493_"><g id="XMLID_1504_"><g id="XMLID_1505_"><g id="XMLID_2439_"><g id="XMLID_2440_"><g id="XMLID_2441_"><g id="XMLID_2442_"><g id="XMLID_2443_"><g id="XMLID_2444_"><g id="XMLID_2445_"><g id="XMLID_2446_"><g id="XMLID_2447_"><g id="XMLID_2448_"><g id="XMLID_2449_"><g id="XMLID_2450_"><circle id="XMLID_2451_" cx="256" cy="256" fill="#98f9ff" r="256"/></g></g></g></g></g></g></g></g></g></g></g></g></g></g><path id="XMLID_1501_" d="m512 256c0-15.639-1.408-30.948-4.094-45.813l-102.443-102.443c-113.536 152.744-320.82 295.965-320.82 295.965s48.517 48.272 97.972 97.597c23.249 6.946 47.878 10.694 73.385 10.694 141.385 0 256-114.615 256-256z" fill="#00e4ef"/><circle id="XMLID_1498_" cx="300.107" cy="205.893" fill="#ff8493" r="144"/><path id="XMLID_1497_" d="m444.107 205.893c0 79.53-64.47 144-144 144v-288c79.53 0 144 64.47 144 144z" fill="#ff5e90"/><ellipse id="XMLID_1496_" cx="300.107" cy="205.893" fill="#ffdadf" rx="91.226" ry="91.226" transform="matrix(.707 -.707 .707 .707 -57.689 272.512)"/><g id="XMLID_1776_"><path id="XMLID_1777_" d="m258.875 148.857c-1.236 9.812 7.015 18.063 16.826 16.826 6.685-.842 12.084-6.241 12.927-12.926 1.237-9.812-7.015-18.065-16.828-16.827-6.685.843-12.083 6.242-12.925 12.927z" fill="#ffa5b1"/></g><ellipse id="XMLID_1778_" cx="249.83" cy="185.677" fill="#ffa5b1" rx="15" ry="15" transform="matrix(1 -.028 .028 1 -5.066 7.018)"/><path id="XMLID_1495_" d="m391.337 205.893c0 50.38-40.85 91.23-91.23 91.23v-182.46c50.38 0 91.23 40.85 91.23 91.23z" fill="#ffa5b1"/><path id="XMLID_1494_" d="m273.405 226.437c-18.364-18.364-53.782-12.72-79.108 12.606-20.103 20.104-27.789 46.558-20.925 65.801-6.776.803-15.047 3.143-23.09 11.187-10.84 10.84-11.324 22.095-11.644 29.543-.245 5.691-.397 7.129-2.884 9.616-2.489 2.489-3.927 2.641-9.62 2.886-7.448.32-18.703.805-29.544 11.646-10.84 10.84-11.325 22.095-11.645 29.542-.07 1.632-.137 3.173-.303 4.445l29.746 3.896c.336-2.57.439-4.951.529-7.052.245-5.692.397-7.131 2.886-9.619 2.489-2.489 3.927-2.641 9.62-2.886 7.448-.32 18.703-.805 29.544-11.645 10.839-10.84 11.323-22.095 11.643-29.542.245-5.691.397-7.13 2.884-9.617 2.488-2.487 3.926-2.64 9.618-2.884 5.797-.249 13.901-.6 22.32-5.854 18.065 2.445 40.068-5.663 57.367-22.962 25.326-25.325 30.97-60.743 12.606-79.107z" fill="#fff"/></g></svg>