<svg id="Layer_1" enable-background="new 0 0 512.001 512.001" height="512" viewBox="0 0 512.001 512.001" width="512" xmlns="http://www.w3.org/2000/svg"><g><g clip-rule="evenodd" fill-rule="evenodd"><circle cx="256" cy="256" fill="#cff5fd" r="206.001"/><path d="m256 50c42.425 0 81.851 12.829 114.618 34.814l1.185-1.185c7.779-7.779 20.506-7.779 28.284 0l15.135-15.135c-42.908-36.478-98.491-58.494-159.222-58.494-135.862 0-246 110.138-246 246s110.138 246.001 246 246.001c44.577 0 88.222-12.112 126.32-34.911-.082-.435-.152-.876-.208-1.321-1.107-8.801-1.387-13.799-7.946-20.358-5.394-5.394-12.313-6.908-20.269-8.16-29.994 16.201-63.627 24.751-97.898 24.751-113.771 0-206.001-92.23-206.001-206.001s92.231-206.001 206.002-206.001z" fill="#ff5d7d"/><path d="m427.187 141.382c21.984 32.768 34.814 72.194 34.814 114.618 0 57.869-24.333 112.92-66.789 151.841 2.947 2.09 5.929 4.589 8.933 7.593 7.755 7.755 12.468 15.529 15.507 24.233 52.27-46.569 82.35-113.353 82.35-183.667 0-60.731-22.02-116.311-58.494-159.222l-15.135 15.135c7.778 7.778 7.779 20.506-.001 28.285z" fill="#ff5d7d"/><path d="m395.212 407.841c-23.004-16.317-43.9-7.769-56.491-20.36-14.204-14.204-1.506-38.977-27.953-65.424-1.773-1.772-3.521-3.374-5.246-4.824.189 14.139-3.699 26.82-12.585 35.706-2.266 2.266-4.779 4.207-7.5 5.838 6.717 14.607.655 36.03 23.306 58.681 16.403 16.403 32.162 17.748 45.155 19.792 7.956 1.252 14.875 2.766 20.269 8.16 6.559 6.559 6.839 11.557 7.946 20.358.056.445.125.886.208 1.321 2.062 10.905 12.283 18.463 23.446 17.063 11.608-1.455 19.84-12.046 18.384-23.654-.965-7.672-2.289-14.499-4.5-20.832-3.038-8.705-7.751-16.478-15.506-24.233-3.004-3.003-5.986-5.501-8.933-7.592z" fill="#fff"/><path d="m285.437 358.777c2.721-1.631 5.234-3.572 7.5-5.838 8.886-8.886 12.774-21.567 12.585-35.706-.336-25.171-13.59-54.963-34.559-76.196-.17-.171-.339-.342-.51-.513-33.112-33.112-72.592-32.328-97.426-7.494s-25.618 64.314 7.494 97.426c30.091 30.09 77.819 44.567 104.916 28.321z" fill="#fff"/><g><path d="m301.093 154.34c-5.26 5.26-8.742 11.652-10.444 18.41-3.333 13.229.148 27.862 10.445 38.158 10.296 10.297 24.929 13.778 38.158 10.445 6.758-1.703 13.151-5.184 18.41-10.444l70.711-70.71c7.779-7.779 7.779-20.506.001-28.285l-28.285-28.284c-7.778-7.778-20.505-7.779-28.284 0z" fill="#ffc144"/><path d="m406.907 60.092h50.002v40.001h-50.002z" fill="#fff" transform="matrix(.707 -.707 .707 .707 69.869 328.864)"/><path d="m435.444 48.272 28.285 28.285 7.071 7.071c3.889 3.889 10.253 3.89 14.142 0l14.142-14.142c3.889-3.889 3.889-10.253 0-14.142l-42.426-42.427c-3.889-3.889-10.253-3.889-14.142 0l-14.142 14.142c-3.889 3.889-3.889 10.253 0 14.142z" fill="#a7bdcd"/></g></g><g><path d="m463.729 90.699c3.771 3.769 8.793 5.845 14.142 5.845 5.351 0 10.373-2.076 14.142-5.846l14.143-14.142c3.77-3.771 5.846-8.793 5.846-14.143s-2.076-10.372-5.846-14.142l-42.427-42.425c-3.77-3.77-8.792-5.846-14.142-5.846s-10.372 2.076-14.143 5.846l-14.144 14.143c-7.796 7.798-7.796 20.485 0 28.284l-6.758 6.759c-45.015-35.539-100.982-55.032-158.542-55.032-68.38 0-132.668 26.629-181.02 74.98s-74.98 112.64-74.98 181.02c0 68.381 26.629 132.668 74.98 181.021 48.352 48.352 112.64 74.98 181.02 74.98 42.534 0 84.394-10.626 121.726-30.803 5.728 8.029 15.109 13.123 25.384 13.122 1.288 0 2.591-.08 3.901-.244 17.061-2.139 29.2-17.759 27.062-34.825-.723-5.749-1.663-11.208-3.038-16.457 51.523-48.281 80.966-116.021 80.966-186.794 0-57.548-19.495-113.522-55.031-158.543zm-100.492 295.478c-8.79-1.331-13.934-2.255-17.445-5.767s-4.436-8.655-5.767-17.445c-1.941-12.826-4.6-30.393-22.185-47.977-.819-.819-1.649-1.612-2.481-2.387-.323-4.801-1.04-9.78-2.168-14.912-4.382-19.933-14.56-39.956-28.414-56.324l17.028-17.027c8.326 5.507 17.948 8.261 27.573 8.261 12.803 0 25.608-4.874 35.354-14.62l60.646-60.647c17.448 29.874 26.623 63.734 26.623 98.667 0 52.236-21.109 102.618-58.113 139.274-11.394-6.175-22.081-7.799-30.651-9.096zm-111.642-125.772c1.953 1.952 4.512 2.929 7.071 2.929s5.118-.977 7.071-2.929l4.846-4.846c11.245 13.658 19.485 30.099 23.074 46.424 4.134 18.804 1.293 34.799-7.793 43.885s-25.081 11.925-43.885 7.793c-19.642-4.318-39.465-15.354-54.388-30.276-27.148-27.148-30.159-60.617-7.493-83.283 10.141-10.141 22.44-15.141 35.372-15.141 13.574 0 27.84 5.533 41.028 16.397l-4.905 4.905c-3.904 3.905-3.904 10.237.002 14.142zm127.279-169.705c1.949-1.95 4.511-2.925 7.071-2.925s5.122.975 7.071 2.925l28.284 28.284c3.898 3.898 3.898 10.243 0 14.142l-1.219 1.219c-.014.015-.029.029-.043.043l-5.809 5.809-7.072-7.071c-3.904-3.906-10.237-3.904-14.142 0-3.905 3.906-3.905 10.237 0 14.143l7.071 7.071-14.143 14.143-7.072-7.071c-3.904-3.906-10.237-3.904-14.142 0-3.905 3.906-3.905 10.237 0 14.143l7.071 7.071-14.143 14.143-7.072-7.071c-3.904-3.906-10.237-3.904-14.142 0-3.905 3.906-3.905 10.237 0 14.143l5.854 5.853c-11.148 5.309-24.918 3.36-34.135-5.857-5.636-5.635-8.738-13.168-8.738-21.212 0-8.045 3.104-15.578 8.738-21.213zm70.712-14.144-21.214 21.214-14.142-14.141 21.214-21.214zm-.002-56.571.001.002c.001 0 .001.001.001.001l42.427 42.426-14.142 14.142-35.348-35.347c-.003-.003-.005-.006-.008-.009s-.006-.005-.008-.008l-7.063-7.063zm-429.584 236.015c0-130.131 105.869-236 236-236 52.276 0 103.131 17.432 144.303 49.271l-1.432 1.432c-9.224-4.394-20.238-3.813-28.989 1.737-34.159-21.245-73.368-32.44-113.882-32.44-17.389 0-34.734 2.089-51.554 6.209-5.364 1.314-8.648 6.728-7.334 12.092 1.313 5.364 6.727 8.646 12.092 7.334 15.265-3.739 31.009-5.635 46.796-5.635 34.936 0 68.796 9.175 98.667 26.622l-60.646 60.647c-9.412 9.412-14.596 21.969-14.596 35.354 0 9.972 2.88 19.479 8.237 27.573l-16.949 16.949c-15.886-13.603-33.566-21.202-51.587-22.085-19.841-.97-38.72 6.45-53.169 20.899-14.449 14.45-21.872 33.332-20.899 53.17 1.011 20.641 10.829 40.835 28.393 58.398 17.551 17.551 40.964 30.551 64.236 35.667 7.22 1.588 14.143 2.372 20.682 2.372 7.363 0 14.237-.999 20.5-2.962.208 1.264.408 2.58.615 3.946 1.942 12.826 4.602 30.393 22.188 47.979 7.45 7.45 14.895 12.214 21.979 15.386-21.612 7.936-44.578 12.084-67.65 12.084-108.075 0-196.001-87.926-196.001-196.001 0-59.51 26.59-115.113 72.951-152.552 4.297-3.47 4.968-9.767 1.498-14.063-3.472-4.298-9.767-4.966-14.063-1.498-51.087 41.258-80.387 102.532-80.387 168.115 0 57.696 22.468 111.938 63.266 152.736 40.797 40.797 95.04 63.265 152.735 63.265 34.545 0 68.875-8.418 99.528-24.328 5.353.988 8.924 2.165 11.567 4.809 3.019 3.019 3.773 4.892 4.421 9.303-35.239 19.78-75.047 30.215-115.517 30.215-130.13.001-235.999-105.869-235.999-236zm384.522 218.23c-6.112.769-11.721-3.587-12.488-9.708l-.175-1.408c-1.069-8.664-1.993-16.146-10.621-24.774-8.332-8.331-18.633-9.891-28.595-11.398-11.746-1.778-23.892-3.616-36.829-16.554-12.938-12.938-14.777-25.085-16.556-36.831-.572-3.78-1.137-7.436-2.021-11.005.95-.814 1.881-1.652 2.771-2.541 5.563-5.563 9.658-12.344 12.249-20.089 5.411 8.981 6.719 17.612 7.994 26.037 1.508 9.962 3.067 20.263 11.398 28.595 8.332 8.331 18.633 9.891 28.595 11.398 11.746 1.778 23.892 3.616 36.829 16.554 11.69 11.69 15.143 23.241 17.154 39.238.768 6.117-3.585 11.72-9.705 12.486zm87.479-218.23c0 62.717-25.078 122.853-69.209 166.953-3.003-4.955-6.778-9.792-11.576-14.591-.361-.361-.722-.706-1.083-1.055 39.433-40.203 61.869-94.77 61.869-151.307 0-40.511-11.196-79.721-32.439-113.883 5.55-8.75 6.13-19.764 1.737-28.987l1.43-1.43c31.836 41.176 49.271 92.036 49.271 144.3z"/><path d="m277.814 111.187h.007c5.522 0 9.997-4.478 9.997-10s-4.481-10-10.004-10-10 4.478-10 10 4.478 10 10 10z"/><path d="m226.314 155.187h.007c5.522 0 9.997-4.478 9.997-10s-4.481-10-10.004-10-10 4.478-10 10 4.478 10 10 10z"/><path d="m122.814 164.687c-5.522 0-10 4.478-10 10s4.478 10 10 10h.007c5.522 0 9.997-4.478 9.997-10s-4.481-10-10.004-10z"/><path d="m100.822 275.687c-5.522 0-10 4.478-10 10s4.478 10 10 10h.007c5.522 0 9.997-4.478 9.997-10s-4.481-10-10.004-10z"/><path d="m180.821 402.687h.008c5.522 0 9.996-4.478 9.996-10s-4.481-10-10.004-10-10 4.478-10 10 4.478 10 10 10z"/><path d="m378.822 327.687c-5.522 0-10 4.478-10 10s4.478 10 10 10h.007c5.522 0 9.997-4.478 9.997-10s-4.481-10-10.004-10z"/><path d="m403.822 238.687c-5.522 0-10 4.478-10 10s4.478 10 10 10h.007c5.522 0 9.997-4.478 9.997-10s-4.481-10-10.004-10z"/><path d="m164.548 81.361c5.522 0 10-4.478 10-10s-4.478-10-10-10h-.007c-5.522 0-9.996 4.478-9.996 10s4.48 10 10.003 10z"/></g></g></svg>