<svg viewBox="0 0 512 512" xmlns="http://www.w3.org/2000/svg"><g id="Layer_2" data-name="Layer 2"><g id="Layer_2_copy_9" data-name="Layer 2 copy 9"><g id="_26" data-name="26"><circle id="background" cx="256" cy="256" fill="#da0a92" r="256"/><path d="m512 256.37c-.2 141.09-114.54 255.43-255.63 255.63l-149-149-16.37-34.07v-145.86l3.81-17.83 12.56-16.24 27.27-9.57h242.72l27.27 9.57z" fill="#a80075"/><g fill="#fff"><path d="m100.33 156.1a43.41 43.41 0 0 0 -9.33 27v145.83a43.39 43.39 0 0 0 9.34 27l105.2-99.93z"/><path d="m411.67 156.1-105.21 99.9 105.2 99.89a43.39 43.39 0 0 0 9.34-27v-145.82a43.41 43.41 0 0 0 -9.33-26.97z"/><path d="m275.08 285.8a27.7 27.7 0 0 1 -38.16 0l-24.13-22.91-105.42 100.11a43.43 43.43 0 0 0 27.27 9.58h242.72a43.43 43.43 0 0 0 27.27-9.58l-105.42-100.11z"/><path d="m268.2 278.55 136.43-129.55a43.48 43.48 0 0 0 -27.27-9.57h-242.72a43.48 43.48 0 0 0 -27.27 9.57l136.43 129.55a17.72 17.72 0 0 0 24.4 0z"/></g></g></g></g></svg>