<svg viewBox="0 0 512 512" xmlns="http://www.w3.org/2000/svg" xmlns:xlink="http://www.w3.org/1999/xlink"><linearGradient id="linear-gradient" gradientUnits="userSpaceOnUse" x1="74.98" x2="437.02" y1="74.98" y2="437.02"><stop offset="0" stop-color="#f977bb"/><stop offset=".27" stop-color="#fb6ca2"/><stop offset=".75" stop-color="#fe597a"/><stop offset="1" stop-color="#ff526b"/></linearGradient><linearGradient id="linear-gradient-2" gradientUnits="userSpaceOnUse" x1="171.93" x2="428.19" y1="189.58" y2="445.84"><stop offset="0" stop-color="#b20b43"/><stop offset="1" stop-color="#c60063" stop-opacity="0"/></linearGradient><g id="Layer_2" data-name="Layer 2"><g id="Layer_17" data-name="Layer 17"><g id="_31" data-name="31"><circle cx="256" cy="256" fill="url(#linear-gradient)" r="256"/><path d="m496.59 343.65a256.48 256.48 0 0 1 -180 161.14l-204.48-204.44-6-31.9 10.7-23.72 26.77-20.73 47.62-19.63 65.72-8.89 51.31 5.41 58.22 20.09 30.55 23.1z" fill="url(#linear-gradient-2)"/><path d="m375.39 321.58a32.74 32.74 0 0 1 -6.34-.62c-10.94-2.14-22.56-4.71-36.55-8.09-13.16-3.17-21-15.85-18.16-29.48 1.16-5.64 2.45-11.32 3.7-16.81.6-2.66 1.2-5.31 1.79-8a1.5 1.5 0 0 0 -1.08-1.82 260.4 260.4 0 0 0 -125.43 0 1.48 1.48 0 0 0 -1.09 1.77c1.07 5 2.12 9.77 3.18 14.59.28 1.28.57 2.55.85 3.82.51 2.23 1 4.54 1.5 6.84a24.78 24.78 0 0 1 -18.61 29.22c-12.91 3.09-24.62 5.69-35.8 7.95-15.25 3.05-30.35-4.83-35.89-18.75-4.89-12.25-7-23.39-6.36-34a52.71 52.71 0 0 1 22.6-39.82c26.16-18.17 56.06-29.55 91.43-34.77 45.18-6.67 88.66-2.62 129.24 12.05 18.08 6.54 33.09 14.49 45.9 24.32 16.26 12.47 23.15 29.86 20 50.31a154.49 154.49 0 0 1 -3.91 17.46 32 32 0 0 1 -30.97 23.83zm-119.46-82.47a275.7 275.7 0 0 1 65.17 8 11.55 11.55 0 0 1 8.51 13.65c-.61 2.73-1.21 5.4-1.82 8.07-1.23 5.44-2.51 11.08-3.65 16.61-1.72 8.37 2.78 15.84 10.7 17.75 13.86 3.34 25.34 5.88 36.13 8a22.09 22.09 0 0 0 25.7-16.08 146.68 146.68 0 0 0 3.67-16.37c2.64-16.84-2.8-30.58-16.15-40.82-12-9.2-26.13-16.67-43.22-22.85-39-14.11-80.85-18-124.38-11.57-33.8 5-62.32 15.82-87.18 33.09a42.59 42.59 0 0 0 -18.32 32.19c-.53 9.15 1.32 18.89 5.66 29.76 3.76 9.42 14.11 14.72 24.62 12.6 11.06-2.24 22.66-4.82 35.45-7.88a14.8 14.8 0 0 0 11.18-17.47c-.45-2.2-1-4.46-1.45-6.64-.29-1.29-.59-2.58-.87-3.88-1.06-4.82-2.11-9.64-3.18-14.6a11.56 11.56 0 0 1 8.5-13.62 274.62 274.62 0 0 1 64.93-7.94z" fill="#fff"/></g></g></g></svg>