<svg id="Icons" viewBox="0 0 60 60" xmlns="http://www.w3.org/2000/svg"><path d="m57.569 2.209c-.161-.12-.732-.463-1.274.122l-23.809 25.502c-.314.336-.816.413-1.216.192l-13.813-7.646c-.627-.346-1.067.074-1.188.211-.264.301-.417.798-.054 1.289s15.814 21.396 15.814 21.396c.365.493.931.765 1.521.723.606-.034 1.131-.36 1.439-.895l22.852-39.558c.438-.757-.149-1.245-.271-1.336z"/><path d="m56.145 20.946c-.276-.118-.588-.107-.854.026-.441.221-.655.717-.507 1.178 1.007 3.139 1.393 6.438 1.145 9.809-.964 13.133-12.05 23.688-25.236 24.032-7.38.191-14.564-2.797-19.643-8.203-5.072-5.402-7.604-12.75-6.943-20.16 1.116-12.535 11.426-22.664 23.982-23.56 4.63-.329 9.225.558 13.303 2.566.48.237 1.056.061 1.315-.395.145-.253.176-.539.093-.812-.081-.262-.259-.471-.5-.59-3.842-1.884-7.98-2.839-12.3-2.839-7.811 0-15.058 3.135-20.407 8.825-5.346 5.69-8.023 13.133-7.537 20.963.87 14.043 12.115 25.288 26.157 26.158 7.825.484 15.273-2.19 20.962-7.537 5.69-5.35 8.825-12.597 8.825-20.407 0-2.888-.438-5.731-1.305-8.454-.117-.368-.396-.534-.551-.6z"/></svg>