<svg id="line_copy" viewBox="0 0 64 64" xmlns="http://www.w3.org/2000/svg" xmlns:xlink="http://www.w3.org/1999/xlink" data-name="line copy"><linearGradient id="linear-gradient" gradientUnits="userSpaceOnUse" x1="4" x2="60" y1="32" y2="32"><stop offset="0" stop-color="#ffa68d"/><stop offset="1" stop-color="#fd3a84"/></linearGradient><path d="m25.10938 44.93915a11.49764 11.49764 0 0 0 -5.50855-4.22992 6.90471 6.90471 0 1 0 -7.98132.0047 11.61819 11.61819 0 0 0 -7.61951 10.8883v4.28028a3.27346 3.27346 0 0 0 3.26953 3.27h14.2207a1.0002 1.0002 0 0 0 -.00006-2h-14.22064a1.27117 1.27117 0 0 1 -1.26953-1.27v-4.28028a9.59961 9.59961 0 0 1 17.4707-5.5166 1 1 0 0 0 1.63868-1.14648zm-9.502-4.94727a4.905 4.905 0 1 1 4.9043-4.90478 4.91033 4.91033 0 0 1 -4.90426 4.90478zm41.27735 4.67139a10.66339 10.66339 0 0 0 -3.7063-2.39716 6.36819 6.36819 0 1 0 -7.63489.00537 10.56641 10.56641 0 0 0 -4.29749 3.03486 1.00045 1.00045 0 0 0 1.52735 1.292 8.638 8.638 0 0 1 15.2266 5.59423v3.88964a1.07163 1.07163 0 0 1 -1.07031 1.07032h-12.5a1 1 0 0 0 0 2h12.5a3.07361 3.07361 0 0 0 3.07031-3.07032v-3.88964a10.60948 10.60948 0 0 0 -3.11523-7.5293zm-7.52735-3.11133a4.36817 4.36817 0 1 1 4.36817-4.36816 4.37332 4.37332 0 0 1 -4.36813 4.36816zm-12.96368 3.8252a5.29446 5.29446 0 1 0 -6.859-.00006 8.72589 8.72589 0 0 0 -5.2847 8.00885v3.1123a2.65611 2.65611 0 0 0 2.65332 2.65283h12.12207a2.65611 2.65611 0 0 0 2.65332-2.65283v-3.1123a8.72562 8.72562 0 0 0 -5.28497-8.00879zm-3.42983-7.29444a3.29444 3.29444 0 1 1 -3.29395 3.29444 3.29878 3.29878 0 0 1 3.29395-3.29444zm6.71484 18.41553a.65382.65382 0 0 1 -.65332.65283h-12.12207a.65382.65382 0 0 1 -.65332-.65283v-3.1123a6.71436 6.71436 0 1 1 13.42871 0zm-8.26953-23.78223a.9993.9993 0 0 0 1.18164 0 94.25473 94.25473 0 0 0 11.99023-10.54834c5.12012-5.62939 2.64649-11.26367 2.53809-11.501-2.34094-5.128-8.90527-8.60932-15.02649-2.79737-1.04577-1.26074-3.20984-2.9956-7.19714-2.9956-5.31934 0-7.90723 5.55664-8.01465 5.793-.1084.2373-2.582 5.87158 2.53809 11.501a94.25473 94.25473 0 0 0 11.99023 10.54831zm-12.70898-21.21923c.02148-.04639 2.17285-4.623 6.19531-4.623 4.75586 0 6.13183 2.94238 6.18457 3.05908a1.008 1.008 0 0 0 1.75781.15326 7.76371 7.76371 0 0 1 6.2666-3.21234c4.02246 0 6.17383 4.57666 6.19239 4.6167.084.18994 2.01269 4.70508-2.19629 9.33154a91.126 91.126 0 0 1 -11.10059 9.83784 91.126 91.126 0 0 1 -11.10059-9.83785c-4.20898-4.6265-2.28027-9.14164-2.19921-9.32523z" fill="url(#linear-gradient)"/></svg>