<?xml version="1.0" encoding="iso-8859-1"?>
<!-- Generator: Adobe Illustrator 19.0.0, SVG Export Plug-In . SVG Version: 6.00 Build 0)  -->
<svg version="1.1" id="Capa_1" xmlns="http://www.w3.org/2000/svg" xmlns:xlink="http://www.w3.org/1999/xlink" x="0px" y="0px"
	 viewBox="0 0 479.994 479.994" style="enable-background:new 0 0 479.994 479.994;" xml:space="preserve">
<path style="fill:#71C0E2;" d="M79.997,231.994l-72,64h32v176h80v-176h32L79.997,231.994z"/>
<path style="fill:#29ABE2;" d="M199.997,463.994v-280h-32l72-64l72,64h-32v280"/>
<path style="fill:#0071BC;" d="M359.997,271.994v-200h-32l72-64l72,64h-32v400h-80v-72V271.994z"/>
<circle style="fill:#ED1C24;" cx="239.997" cy="335.994" r="104"/>
<path style="fill:#29ABE2;" d="M279.997,463.994v8h-80v-8"/>
<path d="M351.997,335.994c0-61.856-50.144-112-112-112s-112,50.144-112,112s50.144,112,112,112
	C301.826,447.928,351.931,397.823,351.997,335.994z M239.997,431.994c-53.019,0-96-42.981-96-96s42.981-96,96-96s96,42.981,96,96
	C335.94,388.99,292.993,431.937,239.997,431.994z"/>
<path d="M286.341,278.338l-104,104c-3.178,3.069-3.266,8.134-0.196,11.312c3.069,3.178,8.134,3.266,11.312,0.196
	c0.067-0.064,0.132-0.13,0.196-0.196l104-104c3.07-3.178,2.982-8.242-0.196-11.312C294.357,275.343,289.441,275.343,286.341,278.338
	z"/>
<path d="M208.797,333.594c15.906,0,28.8-12.894,28.8-28.8c0-15.906-12.894-28.8-28.8-28.8s-28.8,12.894-28.8,28.8l0,0
	C179.997,320.7,192.891,333.594,208.797,333.594z M208.797,291.994c7.069,0,12.8,5.731,12.8,12.8s-5.731,12.8-12.8,12.8
	s-12.8-5.731-12.8-12.8l0,0C195.997,297.725,201.728,291.994,208.797,291.994z"/>
<path d="M271.197,338.394c-15.906,0-28.8,12.894-28.8,28.8s12.894,28.8,28.8,28.8c15.906,0,28.8-12.894,28.8-28.8c0,0,0,0,0,0
	C299.997,351.288,287.103,338.394,271.197,338.394z M271.197,379.994c-7.069,0-12.8-5.731-12.8-12.8s5.731-12.8,12.8-12.8
	s12.8,5.731,12.8,12.8v0C283.997,374.263,278.266,379.994,271.197,379.994z"/>
<path d="M359.997,479.994h80c4.418,0,8-3.582,8-8v-392h24c4.418-0.004,7.997-3.588,7.993-8.007
	c-0.002-2.281-0.977-4.453-2.681-5.969l-72-64c-3.03-2.691-7.594-2.691-10.624,0l-72,64c-3.3,2.937-3.595,7.994-0.657,11.295
	c1.517,1.704,3.688,2.68,5.969,2.681h24v192c0,4.418,3.582,8,8,8s8-3.582,8-8v-200c0-4.418-3.582-8-8-8h-10.96l50.96-45.296
	l50.96,45.296h-10.96c-4.418,0-8,3.582-8,8v392h-64v-64c0-4.418-3.582-8-8-8s-8,3.582-8,8v72
	C351.997,476.412,355.579,479.994,359.997,479.994L359.997,479.994z"/>
<path d="M271.997,463.994h-64c0-4.418-3.582-8-8-8s-8,3.582-8,8v8c0,4.418,3.582,8,8,8h80c4.418,0,8-3.582,8-8v-8
	c0-4.418-3.582-8-8-8S271.997,459.576,271.997,463.994z"/>
<path d="M271.997,183.994v16c0,4.418,3.582,8,8,8s8-3.582,8-8v-8h24c4.418-0.004,7.997-3.588,7.993-8.007
	c-0.002-2.281-0.977-4.453-2.681-5.969l-72-64c-3.03-2.691-7.594-2.691-10.624,0l-72,64c-3.3,2.937-3.595,7.994-0.657,11.295
	c1.517,1.704,3.688,2.68,5.969,2.681h24v8c0,4.418,3.582,8,8,8s8-3.582,8-8v-16c0-4.418-3.582-8-8-8h-10.96l50.96-45.296
	l50.96,45.296h-10.96C275.579,175.994,271.997,179.576,271.997,183.994z"/>
<path d="M39.997,479.994h80c4.418,0,8-3.582,8-8v-72c0-4.418-3.582-8-8-8s-8,3.582-8,8v64h-64v-168c0-4.418-3.582-8-8-8h-10.96
	l50.96-45.296l30.688,27.272c3.203,3.043,8.267,2.913,11.31-0.29c3.043-3.203,2.913-8.267-0.29-11.31
	c-0.128-0.122-0.26-0.239-0.396-0.352l-36-32c-3.03-2.691-7.594-2.691-10.624,0l-72,64c-3.3,2.937-3.595,7.994-0.657,11.295
	c1.517,1.704,3.688,2.68,5.969,2.681h24v168C31.997,476.412,35.579,479.994,39.997,479.994L39.997,479.994z"/>
<g>
</g>
<g>
</g>
<g>
</g>
<g>
</g>
<g>
</g>
<g>
</g>
<g>
</g>
<g>
</g>
<g>
</g>
<g>
</g>
<g>
</g>
<g>
</g>
<g>
</g>
<g>
</g>
<g>
</g>
</svg>
