<svg id="Layer_1" height="512" viewBox="0 0 512 512" width="512" xmlns="http://www.w3.org/2000/svg" data-name="Layer 1"><path d="m191.626 115.6-34.963-89.055a41.723 41.723 0 0 0 -61.863-19.545c-25.593 16.941-51.919 37.752-72.229 57.1a70.958 70.958 0 0 0 -21.918 61.935c10.984 84.269 60.188 175.505 135 250.314s166.045 124.013 250.315 135a77.218 77.218 0 0 0 9.979.655c19.739 0 37.909-7.825 51.956-22.571 19.349-20.309 40.161-46.636 57.1-72.23a41.721 41.721 0 0 0 -19.543-61.863l-89.06-34.966a41.065 41.065 0 0 0 -42.629 7.357l-28.972 25.2c-70.3-35.05-130.657-95.4-165.734-165.737l25.2-28.97a41.064 41.064 0 0 0 7.361-42.624zm193.084 234.561 89.05 34.963a9.72 9.72 0 0 1 4.553 14.416c-1.272 1.923-2.576 3.85-3.892 5.778a488.387 488.387 0 0 1 -111.659-42.991l12.015-10.452a9.223 9.223 0 0 1 9.933-1.714zm-178.7-44.17a400.424 400.424 0 0 0 104.89 75.764 31.329 31.329 0 0 0 23.859 1.695 523.554 523.554 0 0 0 119.341 49.64c-9.692 12.4-19.733 24.148-29.374 34.267a39.166 39.166 0 0 1 -34.626 12.257c-162.67-21.203-336.513-195.046-357.714-357.714a39.172 39.172 0 0 1 12.258-34.631c10.124-9.644 21.876-19.689 34.283-29.385a523.451 523.451 0 0 0 49.629 119.345 31.331 31.331 0 0 0 1.689 23.875 400.432 400.432 0 0 0 75.765 104.887zm-45.886-168.767-10.46 12.025a488.378 488.378 0 0 1 -42.987-111.668c1.929-1.317 3.858-2.621 5.783-3.9a9.124 9.124 0 0 1 5.152-1.681 10.4 10.4 0 0 1 3.145.525 8.975 8.975 0 0 1 6.119 5.716l34.963 89.052a9.222 9.222 0 0 1 -1.715 9.931zm227.876-137.224a124 124 0 0 0 -99.51 197.988v56.678a16 16 0 0 0 24 13.856l43.01-24.831a124.011 124.011 0 1 0 32.5-243.691zm0 216a91.89 91.89 0 0 1 -29.392-4.792 16 16 0 0 0 -13.108 1.306l-25.01 14.439v-34.468a16 16 0 0 0 -3.634-10.153 92 92 0 1 1 71.144 33.668zm16.25-91.071a16 16 0 0 1 -16 16h-.5a16 16 0 0 1 0-32h.5a16 16 0 0 1 16 16zm-47.926 0a16 16 0 0 1 -16 16h-.5a16 16 0 0 1 0-32h.5a16 16 0 0 1 16 16zm95.852 0a16 16 0 0 1 -16 16h-.5a16 16 0 0 1 0-32h.5a16 16 0 0 1 16 16z"/></svg>